HIERARCHY
ROOT Hips
{
	OFFSET 0.000000 0.000000 0.000000
	CHANNELS 6 Xposition Yposition Zposition Xrotation Yrotation Zrotation
	JOINT LeftUpLeg_virtual
	{
		OFFSET 0.000000 0.000000 0.000000
		CHANNELS 3 Xrotation Yrotation Zrotation
		JOINT LeftUpLeg
		{
			OFFSET 10.205400 -3.823500 0.155100
			CHANNELS 3 Xrotation Yrotation Zrotation
			JOINT LeftLeg
			{
				OFFSET 0.708757 -12.982077 0.567790
				CHANNELS 3 Xrotation Yrotation Zrotation
				JOINT LeftFoot
				{
					OFFSET -0.708756 -10.717838 -2.184338
					CHANNELS 3 Xrotation Yrotation Zrotation
					JOINT LeftToeBase
					{
						OFFSET 0.108149 -7.191104 7.560241
						CHANNELS 3 Xrotation Yrotation Zrotation
						JOINT LeftToe_End
						{
							OFFSET 0.070230 0.081724 4.490308
							CHANNELS 3 Xrotation Yrotation Zrotation
							End Site
							{
								OFFSET 0 0 0
							}
						}
					}
				}
			}
		}
	}
	JOINT RightUpLeg_virtual
	{
		OFFSET 0.000000 0.000000 0.000000
		CHANNELS 3 Xrotation Yrotation Zrotation
		JOINT RightUpLeg
		{
			OFFSET -10.205400 -3.823500 0.005500
			CHANNELS 3 Xrotation Yrotation Zrotation
			JOINT RightLeg
			{
				OFFSET -0.708756 -12.982134 0.610632
				CHANNELS 3 Xrotation Yrotation Zrotation
				JOINT RightFoot
				{
					OFFSET 0.708754 -10.717769 -1.945823
					CHANNELS 3 Xrotation Yrotation Zrotation
					JOINT RightToeBase
					{
						OFFSET -0.108140 -7.191069 7.372968
						CHANNELS 3 Xrotation Yrotation Zrotation
						JOINT RightToe_End
						{
							OFFSET -0.070227 0.081735 4.479403
							CHANNELS 3 Xrotation Yrotation Zrotation
							End Site
							{
								OFFSET 0 0 0
							}
						}
					}
				}
			}
		}
	}
	JOINT Spine_virtual
	{
		OFFSET 0.000000 0.000000 0.000000
		CHANNELS 3 Xrotation Yrotation Zrotation
		JOINT Spine
		{
			OFFSET 0.000000 6.876099 0.125700
			CHANNELS 3 Xrotation Yrotation Zrotation
			JOINT Spine1
			{
				OFFSET 0.000000 5.730043 0.104720
				CHANNELS 3 Xrotation Yrotation Zrotation
				JOINT Spine1_split
				{
					OFFSET 0.000000 5.730043 0.104720
					CHANNELS 3 Xrotation Yrotation Zrotation
					JOINT Spine2
					{
						OFFSET 0.000000 5.730043 0.104720
						CHANNELS 3 Xrotation Yrotation Zrotation
						JOINT Neck_virtual
						{
							OFFSET 0.000000 0.000000 0.000000
							CHANNELS 3 Xrotation Yrotation Zrotation
							JOINT Neck
							{
								OFFSET 0.000000 10.314075 0.188496
								CHANNELS 3 Xrotation Yrotation Zrotation
								JOINT Head
								{
									OFFSET 0.000000 7.643700 -2.377400
									CHANNELS 3 Xrotation Yrotation Zrotation
									JOINT HeadTop_End
									{
										OFFSET 0.000000 43.788605 -13.619600
										CHANNELS 3 Xrotation Yrotation Zrotation
										End Site
										{
											OFFSET 0 0 0
										}
									}
								}
							}
						}
						JOINT LeftShoulder_virtual
						{
							OFFSET 0.000000 0.000000 0.000000
							CHANNELS 3 Xrotation Yrotation Zrotation
							JOINT LeftShoulder
							{
								OFFSET 2.196100 4.412489 0.087492
								CHANNELS 3 Xrotation Yrotation Zrotation
								JOINT LeftShoulder_split
								{
									OFFSET 2.196100 4.412489 0.087492
									CHANNELS 3 Xrotation Yrotation Zrotation
									JOINT LeftArm
									{
										OFFSET 8.771219 -2.981674 -0.026999
										CHANNELS 3 Xrotation Yrotation Zrotation
										JOINT LeftForeArm
										{
											OFFSET 8.512804 0.000000 -0.000000
											CHANNELS 3 Xrotation Yrotation Zrotation
											JOINT LeftHand
											{
												OFFSET 18.484802 0.000000 -0.000000
												CHANNELS 3 Xrotation Yrotation Zrotation
												End Site
												{
													OFFSET 0 0 0
												}
											}
										}
									}
								}
							}
						}
						JOINT RightShoulder_virtual
						{
							OFFSET 0.000000 0.000000 0.000000
							CHANNELS 3 Xrotation Yrotation Zrotation
							JOINT RightShoulder
							{
								OFFSET -2.196100 4.412496 0.070690
								CHANNELS 3 Xrotation Yrotation Zrotation
								JOINT RightShoulder_split
								{
									OFFSET -2.196100 4.412496 0.070690
									CHANNELS 3 Xrotation Yrotation Zrotation
									JOINT RightArm
									{
										OFFSET -8.771282 -2.981682 -0.094208
										CHANNELS 3 Xrotation Yrotation Zrotation
										JOINT RightForeArm
										{
											OFFSET -8.494598 0.000000 0.000000
											CHANNELS 3 Xrotation Yrotation Zrotation
											JOINT RightHand
											{
												OFFSET -18.483803 0.000000 0.000001
												CHANNELS 3 Xrotation Yrotation Zrotation
												End Site
												{
													OFFSET 0 0 0
												}
											}
										}
									}
								}
							}
						}
					}
				}
			}
		}
	}
}
MOTION
Frames: 6
Frame Time: 0.03333333
1.669046 22.296455 -2.237783 0.000000 0.000000 0.000000 16.373867 -10.907074 -3.743820 -98.446460 1.801882 -2.954551 39.592868 19.048481 -1.425628 27.769900 25.260468 25.272347 -4.472135 0.000005 -0.000004 0.000000 0.000000 0.000000 16.373867 -10.907074 -3.743820 48.879825 -6.429082 13.547577 4.674744 -11.097782 0.498030 -27.116532 -15.315524 20.967972 -44.288176 0.000243 0.000100 0.000000 0.000000 0.000000 16.373867 -10.907074 -3.743820 11.265401 16.268641 -10.237385 2.878200 4.087946 -0.126407 0.000000 0.000000 0.000000 0.000000 0.000000 0.000000 2.848459 4.312291 -0.311449 -0.690422 -2.335960 4.374013 -6.949600 -9.364417 11.092257 0.000000 0.000000 0.000000 2.848459 4.312291 -0.311449 1.187660 -1.370117 -14.873760 0.000000 0.000000 0.000000 -9.759268 30.208410 -41.048863 0.000003 -11.762797 -0.000005 0.000000 0.000000 0.000000 2.848459 4.312291 -0.311449 2.870348 11.957078 -6.152304 0.000000 0.000000 0.000000 -33.803665 70.877529 6.927824 179.999978 85.290437 179.999937 0.000000 0.000000 0.000000 
0.407034 22.691677 -0.927895 0.000000 0.000000 0.000000 19.591228 -9.549976 -3.913722 -103.231097 1.064453 -1.427494 47.736964 15.834293 -2.024888 24.187879 24.639761 21.012667 -4.472118 -0.000003 0.000005 0.000000 0.000000 0.000000 19.591228 -9.549976 -3.913722 31.590711 -8.896268 6.576600 31.451498 -7.176452 7.159451 -31.920175 -18.041101 20.327224 -37.360684 0.000233 0.000085 0.000000 0.000000 0.000000 19.591228 -9.549976 -3.913722 12.087843 14.469822 -10.346762 2.894022 3.864281 -0.347312 0.000000 0.000000 0.000000 0.000000 0.000000 0.000000 2.866418 4.074820 -0.524100 -0.868210 -2.297585 4.191815 -7.411891 -9.572893 10.876491 0.000000 0.000000 0.000000 2.866418 4.074820 -0.524100 1.202263 -2.183948 -16.571231 0.000000 0.000000 0.000000 -11.438035 28.007286 -38.630867 0.000004 -16.749038 0.000004 0.000000 0.000000 0.000000 2.866418 4.074820 -0.524100 2.921969 12.894771 -5.335081 0.000000 0.000000 0.000000 -27.021080 67.470227 0.787327 179.999991 82.416355 179.999991 0.000000 0.000000 0.000000 
-0.826445 23.058346 0.368162 0.000000 0.000000 0.000000 22.938938 -8.437555 -4.077920 -107.368217 -0.086356 0.161830 54.254610 12.701509 -2.351583 21.042274 24.293393 16.936993 -4.472130 0.000011 -0.000003 0.000000 0.000000 0.000000 22.938938 -8.437555 -4.077920 18.099866 -10.152978 0.391997 46.481404 -2.655727 9.587865 -28.381424 -19.391535 21.021200 -36.740810 -0.873369 7.234588 0.000000 0.000000 0.000000 22.938938 -8.437555 -4.077920 12.961967 12.761915 -10.656162 2.909737 3.626957 -0.594638 0.000000 0.000000 0.000000 0.000000 0.000000 0.000000 2.880758 3.824572 -0.764597 -1.073811 -2.254797 3.988813 -7.907965 -9.757604 10.677780 0.000000 0.000000 0.000000 2.880758 3.824572 -0.764597 1.171182 -2.879766 -18.461124 0.000000 0.000000 0.000000 -13.275147 25.668684 -36.310682 0.000004 -22.092954 0.000000 0.000000 0.000000 0.000000 2.880758 3.824572 -0.764597 2.970389 13.964349 -4.451078 0.000000 0.000000 0.000000 -21.721566 63.600290 -3.964433 -179.999991 79.388853 179.999978 0.000000 0.000000 0.000000 
-2.031804 23.448467 1.731932 0.000000 0.000000 0.000000 26.385687 -7.400336 -4.328158 -110.784159 -1.544977 1.747681 59.655173 9.531567 -2.570942 17.902903 24.163585 13.018399 -4.472134 -0.000003 -0.000005 0.000000 0.000000 0.000000 26.385687 -7.400336 -4.328158 6.087633 -11.026390 -5.602092 55.305568 1.918371 10.541600 -21.520821 -19.844379 21.252347 -36.586762 -3.554373 14.682328 0.000000 0.000000 0.000000 26.385687 -7.400336 -4.328158 13.841494 11.037103 -11.002028 2.924569 3.379235 -0.861975 0.000000 0.000000 0.000000 0.000000 0.000000 0.000000 2.884690 3.564589 -1.026168 -1.304606 -2.207998 3.766921 -8.434455 -9.920139 10.494738 0.000000 0.000000 0.000000 2.884690 3.564589 -1.026168 1.096432 -3.521327 -20.445193 0.000000 0.000000 0.000000 -15.229206 23.206459 -34.170617 0.000003 -27.626391 -0.000000 0.000000 0.000000 0.000000 2.884690 3.564589 -1.026168 2.996302 15.098601 -3.522261 0.000000 0.000000 0.000000 -17.670230 59.461578 -7.500003 -179.999991 76.276479 179.999991 0.000000 0.000000 0.000000 
-3.177868 23.852617 3.221048 0.000000 0.000000 0.000000 29.887422 -6.443436 -4.670549 -113.510203 -3.209555 3.300573 64.460047 6.357451 -2.731402 14.332086 24.238236 9.305990 -4.472130 0.000000 0.000000 0.000000 0.000000 0.000000 29.887422 -6.443436 -4.670549 -4.764182 -11.672650 -11.340740 60.091328 5.689092 10.889516 -14.657255 -20.130055 21.094600 -36.317820 -6.055950 18.995787 0.000000 0.000000 0.000000 29.887422 -6.443436 -4.670549 14.709644 9.360709 -11.324949 2.937491 3.127210 -1.137482 0.000000 0.000000 0.000000 0.000000 0.000000 0.000000 2.886220 3.300545 -1.296321 -1.553378 -2.149416 3.533780 -8.982208 -10.066267 10.322904 0.000000 0.000000 0.000000 2.886220 3.300545 -1.296321 0.972929 -4.240743 -22.310144 0.000000 0.000000 0.000000 -17.174765 20.666814 -32.298725 0.000013 -32.983851 0.000011 0.000000 0.000000 0.000000 2.886220 3.300545 -1.296321 2.977435 16.185240 -2.589787 0.000000 0.000000 0.000000 -14.668354 55.337271 -9.918524 179.999909 73.194944 -179.999978 0.000000 0.000000 0.000000 
-4.220517 24.235149 4.891249 0.000000 0.000000 0.000000 33.392952 -5.615845 -5.099997 -115.599340 -4.993550 4.784887 69.209433 3.237836 -2.824778 9.879740 24.546955 5.897428 -4.472127 0.000017 0.000002 0.000000 0.000000 0.000000 33.392952 -5.615845 -5.099997 -14.406081 -12.021164 -16.623839 62.869152 7.443702 10.783516 -10.691178 -20.873594 21.047663 -36.407746 -5.369065 17.386568 0.000000 0.000000 0.000000 33.392952 -5.615845 -5.099997 15.560460 7.830394 -11.602184 2.948022 2.875841 -1.411504 0.000000 0.000000 0.000000 0.000000 0.000000 0.000000 2.885554 3.037098 -1.564896 -1.813816 -2.088570 3.291831 -9.544399 -10.200287 10.158966 0.000000 0.000000 0.000000 2.885554 3.037098 -1.564896 0.796828 -5.090585 -23.953067 0.000000 0.000000 0.000000 -19.053834 18.083732 -30.668270 0.000008 -37.941212 -0.000009 0.000000 0.000000 0.000000 2.885554 3.037098 -1.564896 2.899949 17.134347 -1.652064 0.000000 0.000000 0.000000 -12.446641 51.490829 -11.431098 179.999991 70.250886 179.999978 0.000000 0.000000 0.000000 
